<?xml version="1.0" encoding="UTF-8" standalone="no"?>
<svg
   width="32"
   height="32"
   viewBox="0 0 32 32"
   fill="#ffffff"
   version="1.1"
   id="svg1"
   sodipodi:docname="edited_logo-white.svg"
   inkscape:version="1.3 (0e150ed6c4, 2023-07-21)"
   xmlns:inkscape="http://www.inkscape.org/namespaces/inkscape"
   xmlns:sodipodi="http://sodipodi.sourceforge.net/DTD/sodipodi-0.dtd"
   xmlns="http://www.w3.org/2000/svg"
   xmlns:svg="http://www.w3.org/2000/svg">
  <defs
     id="defs1" />
  <sodipodi:namedview
     id="namedview1"
     pagecolor="#ffffff"
     bordercolor="#666666"
     borderopacity="1.0"
     inkscape:showpageshadow="2"
     inkscape:pageopacity="0.0"
     inkscape:pagecheckerboard="0"
     inkscape:deskcolor="#d1d1d1"
     showguides="true"
     inkscape:zoom="19.164557"
     inkscape:cx="15.784346"
     inkscape:cy="15.627807"
     inkscape:window-width="1743"
     inkscape:window-height="1008"
     inkscape:window-x="152"
     inkscape:window-y="0"
     inkscape:window-maximized="0"
     inkscape:current-layer="svg1">
    <sodipodi:guide
       position="16,35.02642"
       orientation="-1,0"
       id="guide1"
       inkscape:locked="false"
       inkscape:label=""
       inkscape:color="rgb(0,134,229)" />
  </sodipodi:namedview>
  <path
     d="M 31.132872,7.0844062 C 30.662905,3.6460912 27.61822,0.93647024 24.008981,0.41141624 23.400061,0.32269624 21.0929,-1.9075901e-4 15.748518,-1.9075901e-4 h -0.03991 c -5.345866,0 -6.4927874,0.32288699901 -7.1017084,0.41160699901 -3.508756,0.510507 -6.713022,2.94523996 -7.490445,6.42427596 -0.37393007,1.713331 -0.41383607,3.6128258 -0.34437007,5.3552258 0.09903,2.498726 0.118238,4.993082 0.34880407,7.481665 0.159397,1.653008 0.43746,3.292862 0.832108,4.907277 0.738992,2.981599 3.730442,5.462884 6.661284,6.47514 3.1379114,1.055674 6.5124554,1.230953 9.7458614,0.506169 0.355671,-0.08148 0.707466,-0.17598 1.055261,-0.283638 0.784818,-0.245786 1.705621,-0.520683 2.382533,-1.003556 0.0093,-0.0068 0.01691,-0.0155 0.02227,-0.02561 0.0054,-0.01006 0.0084,-0.02119 0.0087,-0.03257 v -2.411437 c -1.65e-4,-0.01064 -0.0027,-0.02111 -0.0075,-0.03064 -0.0048,-0.0095 -0.01167,-0.01785 -0.0202,-0.02441 -0.0085,-0.0066 -0.01839,-0.01113 -0.0289,-0.01344 -0.01056,-0.0023 -0.02148,-0.0023 -0.032,1.24e-4 -2.071599,0.486955 -4.19445,0.731051 -6.324311,0.727216 -3.665398,0 -4.651224,-1.711888 -4.933543,-2.424549 -0.226902,-0.61593 -0.371009,-1.258455 -0.428611,-1.911164 -5.77e-4,-0.01093 0.0015,-0.0219 0.006,-0.03191 0.0045,-0.01006 0.01138,-0.01889 0.02,-0.02585 0.0087,-0.0069 0.01884,-0.01175 0.02973,-0.0141 0.01089,-0.0024 0.02218,-0.0021 0.03299,6.18e-4 2.037088,0.483657 4.125304,0.727753 6.22086,0.727216 0.503984,0 1.006484,0 1.510509,-0.01307 2.107595,-0.05818 4.328992,-0.164353 6.402612,-0.562905 0.05175,-0.01014 0.103452,-0.01889 0.147818,-0.032 3.270762,-0.618115 6.383398,-2.558348 6.699692,-7.471439 0.01183,-0.193421 0.0414,-2.026037 0.0414,-2.226757 0.0015,-0.682108 0.223192,-4.8389138 -0.03253,-7.3928908 z M 26.098846,19.343878 h -3.439237 v -8.290315 c 0,-1.7453278 -0.739009,-2.6354528 -2.242137,-2.6354528 -1.65239,0 -2.480048,1.052993 -2.480048,3.1328808 v 4.537834 h -3.418581 v -4.537834 c 0,-2.0798878 -0.829142,-3.1328808 -2.481532,-3.1328808 -1.494263,0 -2.240653,0.890125 -2.242138,2.6354528 v 8.290315 H 6.3588636 v -8.541957 c 0,-1.7453268 0.452773,-3.1318908 1.358279,-4.1596918 0.934079,-1.025368 2.1593414,-1.551865 3.6802004,-1.551865 1.760253,0 3.090452,0.66611 3.977238,1.996928 l 0.855779,1.413736 0.857222,-1.413736 c 0.886786,-1.330818 2.216985,-1.996928 3.974311,-1.996928 1.519374,0 2.744596,0.526497 3.681644,1.551865 0.905546,1.026852 1.358278,2.413416 1.358278,4.1596918 z"
     fill="inherit"
     id="path1"
     inkscape:label="path1"
     style="display:inline;fill:#ffffff;fill-opacity:1;stroke-width:0.412324" />
</svg>
