<?xml version="1.0" encoding="UTF-8" standalone="no"?>
<svg
   width="32"
   height="32"
   version="1.1"
   id="svg1"
   sodipodi:docname="github-mark-white.svg"
   inkscape:version="1.3 (0e150ed6c4, 2023-07-21)"
   xmlns:inkscape="http://www.inkscape.org/namespaces/inkscape"
   xmlns:sodipodi="http://sodipodi.sourceforge.net/DTD/sodipodi-0.dtd"
   xmlns="http://www.w3.org/2000/svg"
   xmlns:svg="http://www.w3.org/2000/svg">
  <defs
     id="defs1" />
  <sodipodi:namedview
     id="namedview1"
     pagecolor="#ffffff"
     bordercolor="#666666"
     borderopacity="1.0"
     inkscape:showpageshadow="2"
     inkscape:pageopacity="0.0"
     inkscape:pagecheckerboard="0"
     inkscape:deskcolor="#d1d1d1"
     inkscape:zoom="15.770833"
     inkscape:cx="12.586526"
     inkscape:cy="15.313078"
     inkscape:window-width="1920"
     inkscape:window-height="974"
     inkscape:window-x="-11"
     inkscape:window-y="-11"
     inkscape:window-maximized="1"
     inkscape:current-layer="svg1" />
  <path
     fill-rule="evenodd"
     clip-rule="evenodd"
     d="m 16.013117,0.2665 c -8.8549725,0 -16.01335753936,7.2111571 -16.01335753936,16.132342 0,7.131179 4.58662403936,13.167573 10.94948653936,15.304043 0.795522,0.160612 1.086918,-0.347119 1.086918,-0.774216 0,-0.373997 -0.02622,-1.655944 -0.02622,-2.991647 -4.4545285,0.961706 -5.3821455,-1.923085 -5.3821455,-1.923085 -0.715873,-1.869656 -1.776569,-2.350182 -1.776569,-2.350182 -1.457965,-0.988256 0.106201,-0.988256 0.106201,-0.988256 1.617266,0.106856 2.465888,1.655944 2.465888,1.655944 1.431415,2.457038 3.7380015,1.7628 4.6659465,1.335375 0.132423,-1.041684 0.556898,-1.7628 1.007595,-2.163347 -3.5528055,-0.373997 -7.2908075,-1.7628 -7.2908075,-7.959479 0,-1.7628 0.635893,-3.205032 1.643488,-4.326694 -0.158973,-0.400547 -0.715871,-2.0568189 0.159301,-4.2735939 0,0 1.352092,-0.427425 4.4007725,1.655944 a 15.395821,15.395821 0 0 1 4.003503,-0.534282 c 1.352092,0 2.730407,0.187163 4.003176,0.534282 3.049009,-2.083369 4.401101,-1.655944 4.401101,-1.655944 0.875172,2.216775 0.317946,3.8730469 0.158973,4.2735939 1.034145,1.121662 1.643816,2.563894 1.643816,4.326694 0,6.196679 -3.738002,7.558604 -7.317358,7.959479 0.583448,0.507403 1.086918,1.468782 1.086918,2.991319 0,2.163347 -0.02622,3.899597 -0.02622,4.433551 0,0.427425 0.291724,0.935156 1.086918,0.774871 6.362863,-2.137124 10.949487,-8.173191 10.949487,-15.30437 C 32.026148,7.4776571 24.841543,0.2665 16.013119,0.2665 Z"
     fill="#ffffff"
     id="path1"
     style="stroke-width:0.32778" />
</svg>
